<svg width="544" height="625" viewBox="0 0 544 625" fill="none" xmlns="http://www.w3.org/2000/svg">
<path d="M404.308 51.5108H139.556C62.4411 51.5108 0 114.264 0 191.067V484.852C0 561.655 62.7534 624.408 139.556 624.408H403.995C481.11 624.408 543.551 561.655 543.551 484.852V191.067C543.864 113.952 481.11 51.5108 404.308 51.5108Z" fill="#050505"/>
<path d="M345.323 0H198.585C166.116 0 139.578 26.2253 139.578 58.6947V88.042C139.578 120.511 165.803 146.737 198.273 146.737H345.323C377.792 146.737 404.017 120.511 404.017 88.042V58.6947C404.33 26.2253 377.792 0 345.323 0Z" fill="#FF9000"/>
<path d="M365.622 341.872H147.078C134.278 341.872 123.663 331.257 123.663 318.456C123.663 305.656 134.278 295.041 147.078 295.041H365.622C378.423 295.041 389.038 305.656 389.038 318.456C389.038 331.257 378.423 341.872 365.622 341.872Z" fill="#FF9000"/>
<path d="M283.824 466.754H147.078C134.278 466.754 123.663 456.139 123.663 443.338C123.663 430.538 134.278 419.923 147.078 419.923H283.824C296.625 419.923 307.24 430.538 307.24 443.338C307.24 456.139 296.625 466.754 283.824 466.754Z" fill="#FF9000"/>
</svg>
